<svg width="521.201" height="75.201" viewBox="0 0 521.201 75.201" xmlns="http://www.w3.org/2000/svg"><g id="svgGroup" stroke-linecap="round" fill-rule="evenodd" font-size="9pt" stroke="#000" stroke-width="0.25mm" fill="#000" style="stroke:#000;stroke-width:0.25mm;fill:#000"><path d="M 125.4 74 L 116.4 74 L 116.4 22 L 125.1 22 L 125.1 30.7 Q 127.9 26.5 132.2 23.65 A 17.205 17.205 0 0 1 141.402 20.809 A 20.858 20.858 0 0 1 142 20.8 A 20.994 20.994 0 0 1 146.417 21.24 Q 149.403 21.882 151.685 23.463 A 13.128 13.128 0 0 1 152.15 23.8 A 15.751 15.751 0 0 1 157.598 31.489 A 19.154 19.154 0 0 1 157.7 31.8 Q 160.8 27.2 165.05 24 A 15.669 15.669 0 0 1 171.841 21.116 A 21.446 21.446 0 0 1 175.6 20.8 A 21.437 21.437 0 0 1 180.488 21.322 Q 184.074 22.162 186.563 24.351 A 12.994 12.994 0 0 1 188.25 26.15 A 18.992 18.992 0 0 1 191.661 33.422 Q 192.4 36.472 192.4 40.1 L 192.4 74 L 183.4 74 L 183.4 40.8 A 19.042 19.042 0 0 0 183.063 37.111 Q 182.627 34.905 181.628 33.161 A 10.982 10.982 0 0 0 180.9 32.05 A 7.974 7.974 0 0 0 175.087 28.754 A 10.678 10.678 0 0 0 174 28.7 A 11.926 11.926 0 0 0 167.241 30.827 A 15.996 15.996 0 0 0 165.65 32.05 Q 161.8 35.4 158.9 39.9 L 158.9 74 L 149.9 74 L 149.9 40.8 A 19.042 19.042 0 0 0 149.563 37.111 Q 149.127 34.905 148.128 33.161 A 10.982 10.982 0 0 0 147.4 32.05 A 7.974 7.974 0 0 0 141.587 28.754 A 10.678 10.678 0 0 0 140.5 28.7 A 12.02 12.02 0 0 0 134.181 30.528 A 16.244 16.244 0 0 0 132.2 31.95 Q 128.3 35.2 125.4 39.6 L 125.4 74 Z M 294.3 74 L 283.6 74 L 257.9 6.5 L 267.2 2.9 L 289.2 63.6 L 311.3 3.2 L 319.9 6.5 L 294.3 74 Z M 362.9 74 L 353.9 74 L 353.9 22 L 362.6 22 L 362.6 30.7 Q 365.4 26.5 369.75 23.65 A 17.316 17.316 0 0 1 376.856 21.025 A 22.629 22.629 0 0 1 380.1 20.8 A 23.225 23.225 0 0 1 385.165 21.318 Q 390.259 22.456 393.25 26.1 Q 397.375 31.126 397.588 39.209 A 33.764 33.764 0 0 1 397.6 40.1 L 397.6 74 L 388.6 74 L 388.6 41.1 A 19.265 19.265 0 0 0 388.258 37.359 Q 387.819 35.145 386.819 33.397 A 10.966 10.966 0 0 0 385.95 32.1 A 8.579 8.579 0 0 0 379.673 28.747 A 12.061 12.061 0 0 0 378.6 28.7 A 13.122 13.122 0 0 0 371.751 30.664 A 17.353 17.353 0 0 0 369.9 31.95 Q 365.8 35.2 362.9 39.6 L 362.9 74 Z M 447.5 27.2 L 447.5 0 L 456.5 0 L 456.5 61.4 A 12.15 12.15 0 0 0 456.602 63.036 Q 456.934 65.47 458.35 66.35 Q 460.2 67.5 462.4 67.5 L 460.5 74.5 Q 451 74.5 448.9 66.9 Q 446.7 70 442.75 72.6 Q 438.8 75.2 432.8 75.2 Q 426.4 75.2 421.1 71.9 A 22.692 22.692 0 0 1 413.562 64.109 A 27.622 27.622 0 0 1 412.7 62.55 A 27.533 27.533 0 0 1 410.112 54.608 A 37.221 37.221 0 0 1 409.6 48.3 A 33.94 33.94 0 0 1 410.489 40.386 A 27.963 27.963 0 0 1 412.75 34.2 A 27.291 27.291 0 0 1 417.369 27.609 A 24.186 24.186 0 0 1 421.15 24.4 Q 426.4 20.8 432.7 20.8 A 21.642 21.642 0 0 1 436.972 21.202 A 15.942 15.942 0 0 1 441.65 22.9 A 34.343 34.343 0 0 1 444.23 24.489 Q 445.454 25.324 446.425 26.174 A 16.59 16.59 0 0 1 447.5 27.2 Z M 0 73.8 L 0 4.2 A 100.907 100.907 0 0 1 1.856 4.006 Q 4.753 3.729 8.576 3.507 A 270.552 270.552 0 0 1 8.7 3.5 A 168.416 168.416 0 0 1 13.537 3.295 Q 16.008 3.224 18.745 3.206 A 285.352 285.352 0 0 1 20.6 3.2 Q 29 3.2 34.859 5.289 A 22.604 22.604 0 0 1 40.3 8.05 A 16.711 16.711 0 0 1 44.863 12.707 Q 47.054 16.14 47.191 20.601 A 19.526 19.526 0 0 1 47.2 21.2 A 17.052 17.052 0 0 1 46.573 25.92 A 13.798 13.798 0 0 1 44.25 30.55 Q 41.3 34.4 35.7 36.9 A 30.217 30.217 0 0 1 40.336 38.96 Q 43.813 40.894 46 43.55 Q 49.5 47.8 49.5 54 Q 49.5 63.315 42.29 68.928 A 22.979 22.979 0 0 1 42 69.15 A 24.681 24.681 0 0 1 34.623 72.86 Q 28.579 74.8 20.2 74.8 A 221.836 221.836 0 0 1 12.12 74.658 A 187.566 187.566 0 0 1 8.65 74.5 A 227.449 227.449 0 0 1 6.066 74.344 Q 3.259 74.157 1.195 73.938 A 65.535 65.535 0 0 1 0 73.8 Z M 104.1 51.7 L 67.7 51.7 A 24.088 24.088 0 0 0 68.839 56.725 Q 70.175 60.538 72.8 63.1 Q 77 67.2 83.9 67.2 Q 88.4 67.2 92 66.25 Q 95.6 65.3 98.9 63.8 L 101 71.5 A 40.77 40.77 0 0 1 96.665 73.126 A 51.863 51.863 0 0 1 92.9 74.15 A 38.914 38.914 0 0 1 87.808 74.969 A 52.025 52.025 0 0 1 82.8 75.2 A 28.318 28.318 0 0 1 75.054 74.195 A 21.108 21.108 0 0 1 65.05 68.05 A 23.521 23.521 0 0 1 59.845 58.51 Q 58.5 53.845 58.5 48 A 35.359 35.359 0 0 1 59.333 40.178 A 28.84 28.84 0 0 1 61.45 34.05 A 24.642 24.642 0 0 1 66.466 26.968 A 22.887 22.887 0 0 1 69.7 24.35 A 21.048 21.048 0 0 1 79.959 20.878 A 26.205 26.205 0 0 1 82 20.8 Q 89.5 20.8 94.45 24.05 Q 99.4 27.3 101.9 32.8 A 28.185 28.185 0 0 1 104.326 42.664 A 33.434 33.434 0 0 1 104.4 44.9 A 75.204 75.204 0 0 1 104.109 51.597 A 69.426 69.426 0 0 1 104.1 51.7 Z M 482 71.75 A 24.559 24.559 0 0 0 486.598 73.84 Q 490.653 75.2 495.3 75.2 Q 502.7 75.2 508.55 71.8 Q 514.4 68.4 517.8 62.25 A 26.255 26.255 0 0 0 520.453 55.109 A 34.184 34.184 0 0 0 521.2 47.8 A 34.542 34.542 0 0 0 520.715 41.891 A 25.795 25.795 0 0 0 517.75 33.45 Q 514.3 27.4 508.45 24.1 A 24.848 24.848 0 0 0 503.809 22.073 A 27.738 27.738 0 0 0 495.3 20.8 A 31.325 31.325 0 0 0 493.72 20.839 A 26.169 26.169 0 0 0 482.1 24.1 Q 476.2 27.4 472.8 33.5 A 26.023 26.023 0 0 0 470.051 41.09 A 35.006 35.006 0 0 0 469.4 48 A 34.82 34.82 0 0 0 469.665 52.354 A 27.451 27.451 0 0 0 472.75 62.15 Q 476.1 68.3 482 71.75 Z M 337.9 74 L 328.9 74 L 328.9 22 L 337.9 22 L 337.9 74 Z M 495.3 67.2 Q 503.2 67.2 507.6 61.85 A 18.802 18.802 0 0 0 511.419 53.76 A 27.105 27.105 0 0 0 512 48 Q 512 42.8 509.8 38.45 A 19.198 19.198 0 0 0 505.628 32.881 A 18.17 18.17 0 0 0 503.85 31.45 Q 500.1 28.8 495.3 28.8 A 19.249 19.249 0 0 0 490.074 29.472 A 14.037 14.037 0 0 0 483 34 A 17.878 17.878 0 0 0 479.326 41.374 Q 478.6 44.306 478.6 47.8 Q 478.6 53 480.8 57.45 A 19.437 19.437 0 0 0 484.33 62.49 A 17.627 17.627 0 0 0 486.75 64.55 Q 490.5 67.2 495.3 67.2 Z M 447.5 60.9 L 447.5 35.1 A 15.847 15.847 0 0 0 445.389 32.927 Q 444.268 31.964 442.869 31.066 A 28.139 28.139 0 0 0 442.2 30.65 Q 438.8 28.6 434.7 28.6 A 14.946 14.946 0 0 0 429.744 29.4 A 13.385 13.385 0 0 0 426.3 31.2 A 16.69 16.69 0 0 0 421.13 37.35 A 19.924 19.924 0 0 0 420.75 38.15 A 22.19 22.19 0 0 0 419.01 44.514 A 28.113 28.113 0 0 0 418.8 48 A 24.757 24.757 0 0 0 419.393 53.519 A 20.327 20.327 0 0 0 420.9 57.85 A 18.205 18.205 0 0 0 423.94 62.363 A 16.122 16.122 0 0 0 426.65 64.7 Q 430.3 67.2 434.8 67.2 Q 438.5 67.2 441.85 65.45 Q 445.2 63.7 447.5 60.9 Z M 20.9 41.6 L 9.5 41.6 L 9.5 66.3 Q 14.8 66.9 20.9 66.9 Q 29.8 66.9 34.8 63.7 Q 39.8 60.5 39.8 54.4 A 11.728 11.728 0 0 0 38.928 49.8 Q 37.826 47.187 35.333 45.312 A 14.027 14.027 0 0 0 34.9 45 A 16.7 16.7 0 0 0 30.226 42.799 Q 26.303 41.6 20.9 41.6 Z M 9.5 11.4 L 9.5 34.2 L 20.5 34.2 Q 28.4 34.2 33.05 30.9 Q 37.7 27.6 37.7 22.4 A 10.798 10.798 0 0 0 37.026 18.501 Q 35.939 15.671 33.1 13.85 A 16.643 16.643 0 0 0 28.614 11.886 Q 25.125 10.9 20.5 10.9 Q 17.2 10.9 14.5 11.05 Q 11.8 11.2 9.5 11.4 Z M 246.9 43.8 L 212.9 43.8 L 212.9 35.6 L 246.9 35.6 L 246.9 43.8 Z M 67.6 44.4 L 96.1 44.4 A 24.355 24.355 0 0 0 95.696 39.815 Q 95.2 37.231 94.096 35.207 A 12.422 12.422 0 0 0 92.3 32.7 A 12.488 12.488 0 0 0 85.339 28.924 A 18.395 18.395 0 0 0 81.8 28.6 A 13.58 13.58 0 0 0 76.688 29.535 A 12.524 12.524 0 0 0 72.2 32.65 Q 68.4 36.7 67.6 44.4 Z M 329.037 11.288 A 5.973 5.973 0 0 0 333.4 13.1 A 8.175 8.175 0 0 0 334.896 12.969 A 5.647 5.647 0 0 0 338 11.35 Q 339.7 9.6 339.7 6.8 A 7.26 7.26 0 0 0 339.7 6.719 A 6.06 6.06 0 0 0 337.85 2.35 A 7.395 7.395 0 0 0 337.792 2.293 A 6.059 6.059 0 0 0 333.4 0.5 A 8.264 8.264 0 0 0 331.744 0.658 A 5.661 5.661 0 0 0 328.8 2.2 A 5.588 5.588 0 0 0 327.329 4.832 A 7.987 7.987 0 0 0 327.1 6.8 A 5.992 5.992 0 0 0 327.592 9.219 A 6.643 6.643 0 0 0 328.95 11.2 A 7.466 7.466 0 0 0 329.037 11.288 Z" vector-effect="non-scaling-stroke"/></g></svg>