<svg width="398.975" height="75.978" viewBox="0 0 398.975 75.978" xmlns="http://www.w3.org/2000/svg"><g id="svgGroup" stroke-linecap="round" fill-rule="evenodd" font-size="9pt" stroke="#000" stroke-width="0.25mm" fill="#000" style="stroke:#000;stroke-width:0.25mm;fill:#000"><path d="M 17.676 58.887 L 20.898 70.605 L 24.121 58.887 L 40.918 3.906 L 43.848 3.906 L 60.547 58.887 L 63.721 70.605 L 67.041 58.887 L 81.689 3.906 L 84.57 3.906 L 65.43 75 L 62.451 75 L 44.824 15.723 L 42.334 8.203 L 39.941 15.723 L 22.168 75 L 19.189 75 L 0 3.906 L 2.93 3.906 L 17.676 58.887 Z M 309.033 39.844 L 309.033 75 L 306.396 75 L 306.396 39.502 Q 306.366 34.516 305.003 31.13 A 11.824 11.824 0 0 0 302.905 27.661 Q 299.463 23.779 291.943 23.779 A 16.33 16.33 0 0 0 279.349 29.441 A 23.019 23.019 0 0 0 277.734 31.445 Q 274.463 36.035 273.389 41.602 L 273.389 75 L 270.703 75 L 270.703 22.168 L 273.389 22.168 L 273.389 34.668 A 25.324 25.324 0 0 1 276.529 29.111 A 20.393 20.393 0 0 1 281.055 24.707 Q 286.035 21.191 292.09 21.191 A 24.67 24.67 0 0 1 296.73 21.603 Q 300.314 22.29 302.954 24.121 Q 307.178 27.051 308.496 33.691 Q 310.84 27.979 316.113 24.585 A 21.37 21.37 0 0 1 327.93 21.191 Q 336.475 21.191 340.649 26.025 Q 344.824 30.859 344.873 40.527 L 344.873 75 L 342.236 75 L 342.236 40.723 A 34.645 34.645 0 0 0 341.96 36.191 Q 341.267 30.951 338.833 27.963 A 10.669 10.669 0 0 0 338.745 27.856 Q 335.254 23.682 327.783 23.779 A 20.018 20.018 0 0 0 320.141 25.315 Q 315.71 27.212 312.549 31.445 A 22.03 22.03 0 0 0 310.577 34.597 Q 309.219 37.279 309.033 39.844 Z M 200.342 58.984 L 202.979 58.984 A 18.237 18.237 0 0 1 201.572 65.315 A 16.147 16.147 0 0 1 197.07 71.313 A 19.58 19.58 0 0 1 186.602 75.784 A 25.959 25.959 0 0 1 183.398 75.977 Q 173.486 75.977 167.651 68.799 Q 162.502 62.464 161.897 52.136 A 48.242 48.242 0 0 1 161.816 49.316 L 161.816 47.559 A 40.107 40.107 0 0 1 162.562 39.59 Q 163.525 34.84 165.733 31.121 A 22.849 22.849 0 0 1 167.651 28.369 A 18.812 18.812 0 0 1 181.422 21.26 A 25.333 25.333 0 0 1 183.301 21.191 A 23.026 23.026 0 0 1 189.866 22.087 A 18.343 18.343 0 0 1 197.168 26.221 A 17.686 17.686 0 0 1 202.71 36.828 A 24.222 24.222 0 0 1 202.979 39.6 L 200.342 39.6 A 18.682 18.682 0 0 0 199.301 34.131 A 14.967 14.967 0 0 0 195.337 28.149 A 15.989 15.989 0 0 0 186.713 24.082 A 22.154 22.154 0 0 0 183.301 23.828 A 19.654 19.654 0 0 0 177.096 24.762 A 15.916 15.916 0 0 0 169.458 30.2 A 21.535 21.535 0 0 0 165.824 37.399 Q 164.903 40.471 164.601 44.155 A 45.825 45.825 0 0 0 164.453 47.9 L 164.453 49.609 A 39.263 39.263 0 0 0 165.023 56.519 Q 165.71 60.357 167.225 63.416 A 19.864 19.864 0 0 0 169.507 67.017 A 16.419 16.419 0 0 0 181.51 73.264 A 23.072 23.072 0 0 0 183.398 73.34 A 22.192 22.192 0 0 0 188.803 72.714 A 16.29 16.29 0 0 0 195.239 69.531 A 13.634 13.634 0 0 0 200.101 61.019 A 18.944 18.944 0 0 0 200.342 58.984 Z M 90.332 49.756 L 90.332 47.559 A 31.844 31.844 0 0 1 91.709 38.09 A 28.862 28.862 0 0 1 93.262 34.131 A 24.885 24.885 0 0 1 97.375 27.98 A 21.769 21.769 0 0 1 101.318 24.609 Q 106.445 21.191 112.5 21.191 Q 121.338 21.191 126.953 27.49 A 21.592 21.592 0 0 1 131.935 37.6 A 31.135 31.135 0 0 1 132.568 44.043 L 132.568 46.826 L 92.969 46.826 L 92.969 49.707 Q 92.969 56.152 95.679 61.646 A 22.325 22.325 0 0 0 99.992 67.712 A 20.427 20.427 0 0 0 103.149 70.264 Q 107.91 73.389 113.477 73.389 A 26.578 26.578 0 0 0 117.539 73.095 Q 120.316 72.665 122.534 71.606 A 17.454 17.454 0 0 0 127.462 68.048 A 21.813 21.813 0 0 0 129.15 66.113 L 131.006 67.432 A 19.149 19.149 0 0 1 116.969 75.768 A 28.274 28.274 0 0 1 113.477 75.977 A 21.256 21.256 0 0 1 101.733 72.534 A 23.531 23.531 0 0 1 93.551 63.459 A 27.815 27.815 0 0 1 93.359 63.086 A 28.539 28.539 0 0 1 90.406 52.012 A 34.028 34.028 0 0 1 90.332 49.756 Z M 356.738 49.756 L 356.738 47.559 A 31.844 31.844 0 0 1 358.115 38.09 A 28.862 28.862 0 0 1 359.668 34.131 A 24.885 24.885 0 0 1 363.782 27.98 A 21.769 21.769 0 0 1 367.725 24.609 Q 372.852 21.191 378.906 21.191 Q 387.744 21.191 393.359 27.49 A 21.592 21.592 0 0 1 398.341 37.6 A 31.135 31.135 0 0 1 398.975 44.043 L 398.975 46.826 L 359.375 46.826 L 359.375 49.707 Q 359.375 56.152 362.085 61.646 A 22.325 22.325 0 0 0 366.399 67.712 A 20.427 20.427 0 0 0 369.556 70.264 Q 374.316 73.389 379.883 73.389 A 26.578 26.578 0 0 0 383.945 73.095 Q 386.723 72.665 388.94 71.606 A 17.454 17.454 0 0 0 393.869 68.048 A 21.813 21.813 0 0 0 395.557 66.113 L 397.412 67.432 A 19.149 19.149 0 0 1 383.375 75.768 A 28.274 28.274 0 0 1 379.883 75.977 A 21.256 21.256 0 0 1 368.14 72.534 A 23.531 23.531 0 0 1 359.957 63.459 A 27.815 27.815 0 0 1 359.766 63.086 A 28.539 28.539 0 0 1 356.812 52.012 A 34.028 34.028 0 0 1 356.738 49.756 Z M 212.207 49.902 L 212.207 47.559 A 33.867 33.867 0 0 1 213.101 39.636 A 28.191 28.191 0 0 1 215.112 33.96 Q 218.018 27.93 223.315 24.561 A 21.683 21.683 0 0 1 234.472 21.205 A 26.06 26.06 0 0 1 235.303 21.191 A 23.084 23.084 0 0 1 243.25 22.534 A 21.335 21.335 0 0 1 247.217 24.463 A 21.79 21.79 0 0 1 254.858 32.616 A 26.447 26.447 0 0 1 255.444 33.74 A 29.32 29.32 0 0 1 258.241 43.593 A 36.122 36.122 0 0 1 258.447 47.266 L 258.447 49.609 A 34.53 34.53 0 0 1 257.634 57.248 A 28.164 28.164 0 0 1 255.566 63.232 A 22.893 22.893 0 0 1 250.463 70.244 A 21.654 21.654 0 0 1 247.388 72.607 A 21.683 21.683 0 0 1 236.231 75.963 A 26.06 26.06 0 0 1 235.4 75.977 A 23.048 23.048 0 0 1 227.401 74.614 A 21.316 21.316 0 0 1 223.413 72.656 Q 218.115 69.336 215.186 63.354 A 29.289 29.289 0 0 1 212.411 53.545 A 35.988 35.988 0 0 1 212.207 49.902 Z M 148.145 0 L 148.145 75 L 145.508 75 L 145.508 0 L 148.145 0 Z M 214.844 48.047 L 214.844 49.609 A 28.934 28.934 0 0 0 216.051 58.063 A 26.126 26.126 0 0 0 217.456 61.694 A 21.87 21.87 0 0 0 221.281 67.365 A 19.472 19.472 0 0 0 224.731 70.264 A 18.681 18.681 0 0 0 234.286 73.313 A 22.745 22.745 0 0 0 235.4 73.34 Q 244.434 73.34 250.122 66.553 Q 255.811 59.766 255.811 49.072 L 255.811 47.559 Q 255.811 41.064 253.174 35.547 A 22.259 22.259 0 0 0 249.358 29.879 A 19.708 19.708 0 0 0 245.874 26.929 A 18.622 18.622 0 0 0 235.487 23.829 A 22.399 22.399 0 0 0 235.303 23.828 A 19.239 19.239 0 0 0 227.331 25.443 A 18.774 18.774 0 0 0 220.557 30.713 A 24.467 24.467 0 0 0 215.271 42.599 A 33.469 33.469 0 0 0 214.844 48.047 Z M 93.115 44.189 L 129.932 44.189 L 129.932 43.555 Q 129.932 38.184 127.661 33.569 Q 125.391 28.955 121.411 26.392 Q 117.432 23.828 112.5 23.828 A 17.165 17.165 0 0 0 99.923 29.04 A 21.44 21.44 0 0 0 99.414 29.565 Q 94.043 35.303 93.115 44.189 Z M 359.521 44.189 L 396.338 44.189 L 396.338 43.555 Q 396.338 38.184 394.067 33.569 Q 391.797 28.955 387.817 26.392 Q 383.838 23.828 378.906 23.828 A 17.165 17.165 0 0 0 366.329 29.04 A 21.44 21.44 0 0 0 365.82 29.565 Q 360.449 35.303 359.521 44.189 Z" vector-effect="non-scaling-stroke"/></g></svg>